<svg width="17" height="19" viewBox="0 0 17 19" fill="none" xmlns="http://www.w3.org/2000/svg">
<path d="M9.77504 16.6667C9.62853 16.9192 9.41824 17.1289 9.16523 17.2746C8.91222 17.4204 8.62536 17.4971 8.33337 17.4971C8.04139 17.4971 7.75453 17.4204 7.50152 17.2746C7.24851 17.1289 7.03822 16.9192 6.89171 16.6667M13.3334 5.83334C13.3334 4.50726 12.8066 3.23549 11.8689 2.29781C10.9312 1.36013 9.65946 0.833344 8.33337 0.833344C7.00729 0.833344 5.73552 1.36013 4.79784 2.29781C3.86016 3.23549 3.33337 4.50726 3.33337 5.83334C3.33337 11.6667 0.833374 13.3333 0.833374 13.3333H15.8334C15.8334 13.3333 13.3334 11.6667 13.3334 5.83334Z" stroke="white" stroke-width="1.66667" stroke-linecap="round" stroke-linejoin="round"/>
</svg>
