<svg width="24" height="26" viewBox="0 0 24 26" fill="none" xmlns="http://www.w3.org/2000/svg">
<path d="M13.6851 23.3333C13.48 23.6869 13.1856 23.9804 12.8313 24.1844C12.4771 24.3885 12.0755 24.4959 11.6667 24.4959C11.258 24.4959 10.8564 24.3885 10.5022 24.1844C10.1479 23.9804 9.85353 23.6869 9.64841 23.3333M18.6667 8.16666C18.6667 6.31015 17.9293 4.52967 16.6165 3.21692C15.3037 1.90416 13.5233 1.16666 11.6667 1.16666C9.81023 1.16666 8.02976 1.90416 6.717 3.21692C5.40425 4.52967 4.66675 6.31015 4.66675 8.16666C4.66675 16.3333 1.16675 18.6667 1.16675 18.6667H22.1667C22.1667 18.6667 18.6667 16.3333 18.6667 8.16666Z" stroke="#EF4444" stroke-width="2.33333" stroke-linecap="round" stroke-linejoin="round"/>
</svg>
