<svg width="19" height="19" viewBox="0 0 19 19" fill="none" xmlns="http://www.w3.org/2000/svg">
<path d="M10.6933 12.9733C10.8654 13.0524 11.0593 13.0704 11.243 13.0245C11.4267 12.9786 11.5894 12.8715 11.7041 12.7208L11.9999 12.3333C12.1552 12.1263 12.3565 11.9583 12.5879 11.8426C12.8193 11.7269 13.0745 11.6667 13.3333 11.6667H15.8333C16.2753 11.6667 16.6992 11.8423 17.0118 12.1548C17.3243 12.4674 17.4999 12.8913 17.4999 13.3333V15.8333C17.4999 16.2754 17.3243 16.6993 17.0118 17.0119C16.6992 17.3244 16.2753 17.5 15.8333 17.5C11.855 17.5 8.0397 15.9197 5.22665 13.1066C2.4136 10.2936 0.833252 6.47826 0.833252 2.50001C0.833252 2.05798 1.00885 1.63406 1.32141 1.3215C1.63397 1.00894 2.05789 0.833344 2.49992 0.833344H4.99992C5.44195 0.833344 5.86587 1.00894 6.17843 1.3215C6.49099 1.63406 6.66659 2.05798 6.66659 2.50001V5.00001C6.66659 5.25875 6.60634 5.51394 6.49063 5.74537C6.37492 5.97679 6.20691 6.1781 5.99992 6.33334L5.60992 6.62584C5.45693 6.74266 5.3491 6.90883 5.30474 7.09614C5.26039 7.28344 5.28224 7.48032 5.36659 7.65334C6.50549 9.96656 8.37861 11.8373 10.6933 12.9733Z" stroke="#4F46E5" stroke-width="1.66667" stroke-linecap="round" stroke-linejoin="round"/>
</svg>
