<svg width="24" height="26" viewBox="0 0 24 26" fill="none" xmlns="http://www.w3.org/2000/svg">
<path d="M2.33727 15.1697C2.1165 15.1705 1.90004 15.1086 1.71305 14.9912C1.52606 14.8738 1.37621 14.7058 1.28091 14.5066C1.18561 14.3075 1.14878 14.0854 1.17469 13.8661C1.20059 13.6469 1.28818 13.4395 1.42727 13.268L12.9773 1.36804C13.0639 1.26804 13.182 1.20046 13.3121 1.1764C13.4422 1.15234 13.5766 1.17322 13.6933 1.23563C13.81 1.29804 13.902 1.39826 13.9542 1.51984C14.0064 1.64142 14.0157 1.77713 13.9806 1.90471L11.7406 8.92804C11.6746 9.10482 11.6524 9.29498 11.676 9.48222C11.6996 9.66945 11.7682 9.84817 11.876 10.003C11.9839 10.1579 12.1277 10.2843 12.2951 10.3714C12.4625 10.4585 12.6486 10.5037 12.8373 10.503H21.0039C21.2247 10.5023 21.4412 10.5642 21.6282 10.6816C21.8151 10.7989 21.965 10.967 22.0603 11.1661C22.1556 11.3653 22.1924 11.5874 22.1665 11.8066C22.1406 12.0259 22.053 12.2333 21.9139 12.4047L10.3639 24.3047C10.2773 24.4047 10.1592 24.4723 10.0291 24.4964C9.89902 24.5204 9.76459 24.4995 9.64792 24.4371C9.53125 24.3747 9.43925 24.2745 9.38705 24.1529C9.33484 24.0313 9.32551 23.8956 9.3606 23.768L11.6006 16.7447C11.6667 16.5679 11.6888 16.3778 11.6652 16.1905C11.6417 16.0033 11.573 15.8246 11.4652 15.6697C11.3573 15.5148 11.2135 15.3884 11.0461 15.3014C10.8787 15.2143 10.6927 15.1691 10.5039 15.1697H2.33727Z" stroke="#10B981" stroke-width="2.33333" stroke-linecap="round" stroke-linejoin="round"/>
</svg>
