<svg width="21" height="26" viewBox="0 0 21 26" fill="none" xmlns="http://www.w3.org/2000/svg">
<path d="M19.8333 14.0005C19.8333 19.8339 15.75 22.7505 10.8966 24.4422C10.6425 24.5283 10.3664 24.5242 10.115 24.4305C5.24996 22.7505 1.16663 19.8339 1.16663 14.0005V5.83386C1.16663 5.52444 1.28954 5.22769 1.50833 5.0089C1.72713 4.79011 2.02387 4.66719 2.33329 4.66719C4.66663 4.66719 7.58329 3.26719 9.61329 1.49386C9.86046 1.28269 10.1749 1.16666 10.5 1.16666C10.825 1.16666 11.1395 1.28269 11.3866 1.49386C13.4283 3.27886 16.3333 4.66719 18.6666 4.66719C18.976 4.66719 19.2728 4.79011 19.4916 5.0089C19.7104 5.22769 19.8333 5.52444 19.8333 5.83386V14.0005Z" stroke="#3B82F6" stroke-width="2.33333" stroke-linecap="round" stroke-linejoin="round"/>
</svg>
